<?xml version="1.0" encoding="UTF-8" standalone="no"?>
<!-- Generator: Adobe Illustrator 24.2.1, SVG Export Plug-In . SVG Version: 6.00 Build 0)  -->

<svg
   xmlns:dc="http://purl.org/dc/elements/1.1/"
   xmlns:cc="http://creativecommons.org/ns#"
   xmlns:rdf="http://www.w3.org/1999/02/22-rdf-syntax-ns#"
   xmlns:svg="http://www.w3.org/2000/svg"
   xmlns="http://www.w3.org/2000/svg"
   xmlns:sodipodi="http://sodipodi.sourceforge.net/DTD/sodipodi-0.dtd"
   xmlns:inkscape="http://www.inkscape.org/namespaces/inkscape"
   version="1.1"
   id="Layer_1"
   x="0px"
   y="0px"
   viewBox="0 0 1000 361.10001"
   xml:space="preserve"
   sodipodi:docname="logo-altera.svg"
   width="1000"
   height="361.10001"
   inkscape:version="0.92.4 (5da689c313, 2019-01-14)"><metadata
   id="metadata66"><rdf:RDF><cc:Work
       rdf:about=""><dc:format>image/svg+xml</dc:format><dc:type
         rdf:resource="http://purl.org/dc/dcmitype/StillImage" /><dc:title></dc:title></cc:Work></rdf:RDF></metadata><defs
   id="defs64">
	
	
	

		
		
	
		<linearGradient
   id="SVGID_1_"
   gradientUnits="userSpaceOnUse"
   x1="173.1071"
   y1="47.044601"
   x2="180"
   y2="47.044601"
   gradientTransform="matrix(5.5542918,0,0,5.5542918,0.22747045,0.07103427)">
			<stop
   offset="0"
   style="stop-color:#F28D98"
   id="stop32" />
			<stop
   offset="1"
   style="stop-color:#EF6E7B"
   id="stop34" />
		</linearGradient>
		
	
		
		
		
		
		
		
		
		
		
		
		
		
		
	</defs><sodipodi:namedview
   pagecolor="#ffffff"
   bordercolor="#111111"
   borderopacity="1"
   objecttolerance="10"
   gridtolerance="10"
   guidetolerance="10"
   inkscape:pageopacity="0"
   inkscape:pageshadow="2"
   inkscape:window-width="1920"
   inkscape:window-height="1017"
   id="namedview62"
   showgrid="false"
   fit-margin-top="0"
   fit-margin-left="0"
   fit-margin-right="0"
   fit-margin-bottom="0"
   inkscape:zoom="0.45972222"
   inkscape:cx="647.63456"
   inkscape:cy="-103.63049"
   inkscape:window-x="1912"
   inkscape:window-y="-8"
   inkscape:window-maximized="1"
   inkscape:current-layer="Layer_1" />
<style
   type="text/css"
   id="style2">
	.st0{fill:#8D96F4;}
	.st1{fill:url(#SVGID_1_);}
	.st2{fill:#FFFFFF;}
</style>
<path
   class="st0"
   d="m 301.82551,319.99824 h 13.88573 c 12.77487,0 21.10631,8.88687 21.10631,19.99546 v 0 c 0,11.10858 -8.88687,19.99545 -21.10631,19.99545 h -13.88573 z m 13.88573,36.1029 c 9.99773,0 16.66288,-6.66515 16.66288,-16.10744 v 0 c 0,-8.88687 -6.66515,-16.10745 -16.66288,-16.10745 h -9.44229 v 32.21489 z"
   id="path4"
   inkscape:connector-curvature="0"
   style="fill:#8d96f4;stroke-width:5.55429173"
   sodipodi:nodetypes="csccscccccscccc" /><path
   class="st0"
   d="m 359.03472,319.99824 h 4.44343 v 40.54634 h -4.44343 z"
   id="path6"
   inkscape:connector-curvature="0"
   style="fill:#8d96f4;stroke-width:5.55429173" /><path
   class="st0"
   d="m 384.58446,340.54912 v 0 c 0,-11.10858 8.33144,-21.1063 19.99545,-21.1063 6.66515,0 11.10859,2.22171 14.99659,5.55429 l -2.77715,3.33257 c -3.33257,-2.77714 -6.66515,-4.44343 -12.21944,-4.44343 -8.88687,0 -15.55202,7.77601 -15.55202,16.66287 v 0 c 0,9.4423 6.10973,16.66288 16.10745,16.66288 4.44343,0 8.88687,-1.66629 11.66401,-3.888 v -9.99773 h -12.21944 v -4.44343 h 16.66288 v 16.10744 c -3.88801,3.33258 -9.4423,6.10972 -16.10745,6.10972 -12.77487,0 -20.55088,-9.44229 -20.55088,-20.55088 z"
   id="path8"
   inkscape:connector-curvature="0"
   style="fill:#8d96f4;stroke-width:5.55429173" /><path
   class="st0"
   d="m 443.45995,319.99824 h 4.44344 v 40.54634 h -4.44344 z"
   id="path10"
   inkscape:connector-curvature="0"
   style="fill:#8d96f4;stroke-width:5.55429173" /><path
   class="st0"
   d="m 481.78457,324.44168 h -13.3303 v -4.44344 h 31.65946 v 4.44344 h -13.3303 v 36.1029 H 482.34 v -36.1029 z"
   id="path12"
   inkscape:connector-curvature="0"
   style="fill:#8d96f4;stroke-width:5.55429173" /><path
   class="st0"
   d="m 529.55148,319.99824 h 4.44343 l 18.32916,40.54634 h -4.99886 l -4.44343,-10.55316 h -21.66174 l -4.99886,10.55316 h -4.99887 z m 11.66401,25.54975 -8.88687,-20.55088 -9.44229,20.55088 z"
   id="path14"
   inkscape:connector-curvature="0"
   style="fill:#8d96f4;stroke-width:5.55429173" /><path
   class="st0"
   d="m 571.7641,319.99824 h 4.44343 v 36.1029 h 22.7726 v 4.44344 H 571.7641 Z"
   id="path16"
   inkscape:connector-curvature="0"
   style="fill:#8d96f4;stroke-width:5.55429173" /><path
   class="st0"
   d="m 654.52304,319.99824 h 4.44344 v 17.77374 h 23.32802 v -17.77374 h 4.44344 v 40.54634 h -4.44344 v -18.32917 h -23.32802 v 18.32917 h -4.44344 z"
   id="path18"
   inkscape:connector-curvature="0"
   style="fill:#8d96f4;stroke-width:5.55429173" /><path
   class="st0"
   d="m 709.51053,319.99824 h 28.88232 v 3.88801 h -24.43888 v 13.88573 h 22.21716 v 3.888 h -22.21716 v 13.88573 h 24.99431 v 3.88801 h -29.43775 z"
   id="path20"
   inkscape:connector-curvature="0"
   style="fill:#8d96f4;stroke-width:5.55429173" /><path
   class="st0"
   d="m 774.49575,319.99824 h 4.44343 l 18.32916,40.54634 h -4.99886 l -4.44343,-10.55316 h -21.66174 l -4.99886,10.55316 h -4.44344 z m 11.10858,25.54975 -8.88687,-20.55088 -9.44229,20.55088 z"
   id="path22"
   inkscape:connector-curvature="0"
   style="fill:#8d96f4;stroke-width:5.55429173" /><path
   class="st0"
   d="m 816.70837,319.99824 h 4.44343 v 36.1029 h 22.7726 v 4.44344 h -27.21603 z"
   id="path24"
   inkscape:connector-curvature="0"
   style="fill:#8d96f4;stroke-width:5.55429173" /><path
   class="st0"
   d="m 868.91871,324.44168 h -13.3303 v -4.44344 h 31.65946 v 4.44344 h -13.3303 v 36.1029 h -4.44343 v -36.1029 z"
   id="path26"
   inkscape:connector-curvature="0"
   style="fill:#8d96f4;stroke-width:5.55429173" /><path
   class="st0"
   d="m 906.68789,319.99824 h 4.44344 v 17.77374 h 23.32802 v -17.77374 h 4.44344 v 40.54634 h -4.44344 v -18.32917 h -23.32802 v 18.32917 h -4.44344 z"
   id="path28"
   inkscape:connector-curvature="0"
   style="fill:#8d96f4;stroke-width:5.55429173" /><path
   class="st1"
   d="m 1000,276.11934 v -29.99318 c 0,-5.55429 -6.66515,-8.33143 -10.55316,-3.888 l -26.10517,29.99318 c -3.33258,3.888 -0.55543,9.99772 4.44343,9.99772 h 26.10517 c 3.33258,0 6.10973,-2.77715 6.10973,-6.10972 z"
   id="path37"
   style="fill:url(#SVGID_1_);stroke-width:5.55429173"
   inkscape:connector-curvature="0" /><g
   id="g53"
   style="fill:#3b3198;fill-opacity:1"
   transform="matrix(5.5542918,0,0,5.5542918,0.22747045,0.07103427)">
			<path
   class="st2"
   d="m 86.8,34.2 v -0.9 c 0,-9.1 7.3,-16.5 16.4,-16.4 10.2,0.2 15.3,8.3 15.3,17.7 0,0.6 0,1.1 -0.1,1.7 0,0.2 -0.2,0.4 -0.4,0.4 H 94.3 c 0.8,5.4 4.6,8.3 9.4,8.3 3.6,0 6.1,-1.3 8.7,-3.7 0.1,-0.1 0.3,-0.1 0.4,0 l 4,3.6 c 0.1,0.1 0.1,0.3 0,0.4 -3.1,3.6 -7.3,6 -13.2,6 -9.5,-0.1 -16.8,-7 -16.8,-17.1 z m 23.9,-2.5 c 0.2,0 0.3,-0.1 0.3,-0.3 -0.6,-4.7 -3.4,-8.3 -8.3,-8.3 -4.5,0 -7.7,3.4 -8.5,8.3 0,0.2 0.1,0.3 0.3,0.3 z"
   id="path41"
   inkscape:connector-curvature="0"
   style="fill:#3b3198;fill-opacity:1" />
			<path
   class="st2"
   d="m 124,21.8 6,-4.2 c 0.4,-0.3 0.8,0 0.8,0.4 v 5.5 c 4.2,-4.2 7.6,-5.5 13,-6.9 0.2,-0.1 0.4,0.1 0.4,0.3 l 0.1,1.8 c 0,0.9 -0.1,1.8 -0.4,2.6 -1.1,2.4 -3.1,2.5 -5.8,4.4 -3.7,2.6 -7.3,6.3 -7.3,12.4 v 12.2 c 0,0.1 -0.1,0.3 -0.3,0.3 h -7 c -0.1,0 -0.3,-0.1 -0.3,-0.3 V 23.1 c 0.1,-0.5 0.4,-1 0.8,-1.3 z"
   id="path43"
   inkscape:connector-curvature="0"
   style="fill:#3b3198;fill-opacity:1" />
			<path
   class="st2"
   d="m 85.3,18 c 0,-0.2 -0.1,-0.3 -0.3,-0.3 H 83.1 76.6 V 9.4 C 76.6,8.9 76.1,8.7 75.7,9 l -6.1,5.4 c -0.3,0.3 -0.5,0.7 -0.5,1.2 v 8.5 0 17.3 c 0,7.2 3.9,9.6 9.4,9.6 2.7,0 4.7,-0.6 6.6,-1.6 0.1,-0.1 0.2,-0.2 0.2,-0.3 v -5.4 c 0,-0.2 -0.2,-0.4 -0.4,-0.3 -1.3,0.6 -2.7,0.9 -4.2,0.9 -2.5,0 -4,-1.2 -4,-4.1 V 24.1 h 2.4 c 2.5,0 6,-2.7 6.2,-6.1 z"
   id="path45"
   inkscape:connector-curvature="0"
   style="fill:#3b3198;fill-opacity:1" />
			<path
   class="st2"
   d="m 155.5,22.8 c 5.2,1.4 6.4,3.5 6.4,8 v 0.6 c -2.5,-0.8 -5.1,-1.4 -9.1,-1.4 -7.6,0 -13.3,3.5 -13.3,10.8 V 41 c 0,6.6 5.5,10.1 11.7,10.1 5,0 8.4,-2.1 10.6,-4.7 v 3.8 c 0,0.1 0.1,0.3 0.3,0.3 h 6.9 c 0.1,0 0.3,-0.1 0.3,-0.3 V 31 c 0,-8.8 -7,-13.9 -15.8,-14.9 -1.7,-0.2 -4,-0.2 -6.4,-0.1 -0.2,0 -0.3,0.2 -0.3,0.4 l 0.2,1.8 c 0.1,2.6 2.8,3.5 5.2,4 2.9,0.6 3.3,0.6 3.3,0.6 z m 6.5,15.8 c 0,4.1 -3.7,6.9 -8.7,6.9 -3.5,0 -6.3,-1.7 -6.3,-4.9 v -0.1 c 0,-3.2 2.8,-5.1 7.5,-5.1 2.7,0 5.2,0.5 7,1.1 0.3,0.1 0.5,0.4 0.5,0.7 z"
   id="path47"
   inkscape:connector-curvature="0"
   style="fill:#3b3198;fill-opacity:1" />
			<g
   id="g51"
   style="fill:#3b3198;fill-opacity:1">
				<path
   class="st2"
   d="M 39.6,39.1 H 19 c -0.4,0 -0.8,0.2 -1.1,0.5 L 12,46.7 C 8.9,50.5 7.7,50.5 3.9,50.5 H 0.5 C 0,50.5 -0.2,50 0.1,49.6 l 34.4,-40.7 1,-1.1 c 1.6,-2.1 4,-4.1 7.1,-4.1 h 4.9 v 46.5 c 0,0.1 -0.1,0.3 -0.3,0.3 h -7 c -0.1,0 -0.3,-0.1 -0.3,-0.3 V 39.3 c 0,-0.1 -0.1,-0.2 -0.3,-0.2 z m 0.3,-7.7 0.2,-17.8 c 0,-0.3 -0.3,-0.4 -0.5,-0.2 L 24.8,31.2 c -0.2,0.2 0,0.5 0.2,0.5 h 14.6 c 0.2,0 0.3,-0.1 0.3,-0.3 z"
   id="path49"
   inkscape:connector-curvature="0"
   style="fill:#3b3198;fill-opacity:1" />
			</g>
		</g><path
   class="st2"
   d="M 305.71352,42.283654 339.03927,1.1818943 c 1.66629,-2.22172 5.55429,-1.11086003 5.55429,1.66629 V 278.89649 c 0,0.55542 -0.55543,1.66628 -1.66629,1.66628 h -38.88004 c -0.55543,0 -1.66629,-0.55543 -1.66629,-1.66628 V 50.059664 c 0,-2.77715 1.11086,-5.55429 3.33258,-7.77601 z"
   id="path55"
   inkscape:connector-curvature="0"
   style="fill:#3b3198;fill-opacity:1;stroke-width:5.55429173" />
</svg>